# xmcd CD database file
#
# Track frame offsets:
#	150
#	29051
#	58078
#	77266
#	96734
#	118997
#	143261
#	167348
#	181065
#	205047
#	230723
#	255983
#
# Disc length: 3736 seconds
#
# Revision: 0
# Processed by: cddbd v1.5.2PL0 Copyright (c) Steve Scherf et al.
# Submitted via: CDex 1.51
#
DISCID=9a0e960c
DTITLE=mojam - lovebox
DYEAR=2008
DGENRE=Jazz
TTITLE0=baby mind
TTITLE1=stag bellows
TTITLE2=hellboy
TTITLE3=manga
TTITLE4=timegate
TTITLE5=lovebox
TTITLE6=king lui
TTITLE7=phone virus
TTITLE8=weed is gone
TTITLE9=desert taxi
TTITLE10=stereo dream
TTITLE11=that´s it
EXTD=YEAR: 2008
EXTT0=
EXTT1=
EXTT2=
EXTT3=
EXTT4=
EXTT5=
EXTT6=
EXTT7=
EXTT8=
EXTT9=
EXTT10=
EXTT11=
PLAYORDER=
